P2
#imagem_aleatoria.pgm
60 100
255
15 34 53 18 30 33 30 11 24 9 4 16 1 5 50 21 40 9 40 44 3 24 55 39 29 46 32 2 29 0 47 37 8 2 14 48 50 1 55 16 17 43 17 1 19 20 24 4 41 19 30 12 3 36 14 3 6 14 3 18 
36 31 20 1 51 7 18 11 48 27 29 30 21 43 44 17 33 22 20 39 47 44 36 28 34 13 14 37 47 0 39 44 35 46 11 44 31 16 3 50 49 5 0 5 45 41 53 48 19 11 32 5 51 46 33 28 14 19 46 4 
7 52 6 25 3 11 36 15 20 28 31 30 36 25 32 47 32 21 43 45 18 19 42 23 36 8 30 21 26 30 39 9 39 50 22 41 27 48 49 26 35 29 39 23 49 6 37 33 54 47 39 9 37 46 27 5 2 10 43 15 
51 14 49 4 22 26 16 3 43 28 0 20 11 2 19 20 41 27 54 38 39 47 34 51 53 37 19 54 14 28 0 1 27 19 36 12 20 36 52 48 19 14 51 14 20 51 10 5 19 2 12 36 20 6 33 28 32 46 33 42 
38 30 28 28 1 53 40 10 49 8 26 55 36 40 24 39 30 16 54 19 55 34 47 19 28 10 15 20 48 2 47 50 29 16 49 55 37 5 20 5 14 7 50 17 29 25 24 48 10 25 5 30 45 43 15 44 15 28 51 34 
29 26 3 54 40 10 5 43 48 1 9 54 2 7 19 13 39 41 34 41 55 6 8 37 6 5 36 23 46 5 36 15 45 4 30 37 49 52 33 40 49 43 7 20 45 26 30 12 9 24 32 41 46 31 23 33 1 16 13 51 
16 27 27 2 2 2 16 8 47 22 5 53 24 41 38 16 24 46 27 21 3 46 40 40 37 5 18 1 47 4 11 9 6 32 32 19 36 18 9 46 42 8 0 43 6 53 30 34 2 29 34 33 37 43 27 39 39 38 40 30 
15 9 30 24 46 50 35 44 1 6 8 16 51 3 44 41 2 45 46 49 27 13 43 24 24 47 17 54 17 35 3 24 9 15 54 9 18 35 43 3 19 37 55 38 41 53 31 48 12 19 23 37 28 24 21 33 51 35 18 12 
45 29 1 30 13 23 35 19 17 10 18 16 17 6 20 7 36 40 42 7 45 22 10 40 12 45 49 5 55 45 37 10 2 50 43 40 36 15 4 39 44 46 14 52 12 35 40 3 21 10 5 7 11 46 36 31 19 4 23 11 
34 22 12 0 32 36 49 39 37 40 51 53 10 9 40 23 51 27 43 20 51 13 8 31 1 19 24 29 42 44 31 28 38 47 5 13 23 10 18 43 16 51 38 28 43 26 39 8 14 6 36 7 6 55 10 32 44 5 53 16 
15 31 9 39 35 6 9 33 40 27 16 3 38 22 46 21 0 17 53 47 30 28 53 39 15 10 28 10 30 52 42 8 53 28 21 5 31 5 0 53 35 9 49 32 46 19 43 31 23 54 9 22 33 21 36 42 29 5 30 12 
14 40 8 14 9 51 10 54 20 34 25 41 38 51 46 2 8 40 44 43 3 17 2 26 9 41 50 0 32 24 16 23 53 33 15 10 13 52 25 1 26 23 54 20 19 33 7 0 13 31 51 40 49 34 9 6 30 25 39 50 
1 35 42 2 1 31 15 3 40 8 42 14 55 27 5 47 25 11 35 26 20 55 22 23 51 42 6 32 31 27 2 47 38 30 52 14 4 43 0 41 18 37 53 55 29 54 7 1 41 17 28 49 45 0 6 7 32 55 48 40 
52 40 45 33 18 17 37 10 30 19 41 54 52 4 25 25 43 32 20 35 18 11 0 53 16 42 51 25 8 18 17 15 37 17 30 13 18 12 38 15 29 16 3 23 37 38 0 47 34 33 4 12 20 17 48 5 54 21 28 21 
20 20 55 37 51 4 54 54 40 23 39 20 27 43 38 7 29 9 40 55 49 49 6 45 15 3 52 2 54 1 43 2 51 35 27 1 13 27 37 25 11 2 8 34 48 10 26 12 53 31 10 17 0 32 43 30 28 9 20 43 
1 54 22 41 45 1 29 28 43 52 11 41 3 38 33 9 42 31 39 22 28 46 14 22 47 54 44 54 34 44 15 25 22 28 30 25 3 28 5 45 14 25 39 44 9 1 25 40 43 17 4 38 34 16 11 30 7 51 6 54 
33 50 39 36 5 51 51 51 44 30 2 29 29 25 35 10 20 4 1 0 19 32 51 52 16 35 3 24 23 39 20 37 18 37 50 51 46 19 37 30 32 13 54 3 24 27 53 36 44 32 17 32 8 43 26 47 21 17 44 52 
31 34 5 12 52 11 17 30 42 21 3 3 48 11 31 24 7 33 54 2 34 19 41 25 4 12 50 0 9 9 7 36 16 45 0 34 39 30 12 46 48 7 22 2 11 39 22 36 51 26 29 51 5 31 49 35 22 18 10 14 
45 35 44 46 41 30 22 24 4 52 2 27 0 10 31 42 41 25 43 22 51 38 28 32 53 51 1 5 55 29 28 10 40 39 27 26 19 7 31 14 42 39 29 4 11 47 19 36 18 25 13 15 8 13 49 8 43 30 48 7 
22 21 38 12 26 45 43 33 12 54 3 11 17 46 51 18 24 37 53 15 7 31 46 14 49 55 6 36 14 18 7 10 3 2 25 3 43 53 46 42 54 29 42 24 42 1 5 13 15 11 52 44 31 11 52 36 22 36 49 19 
85 81 59 57 87 82 68 60 95 103 59 74 83 103 97 101 72 100 48 76 77 64 98 79 93 86 89 83 84 82 65 91 96 56 90 83 73 90 83 76 60 55 49 60 51 71 60 77 102 61 100 63 87 92 94 88 62 47 104 98 
62 75 51 67 103 64 70 47 93 82 91 98 100 98 59 60 69 45 45 48 95 71 89 61 79 59 50 94 92 63 57 55 63 74 51 49 80 98 51 54 102 45 51 103 92 77 81 103 88 89 69 82 91 70 50 60 90 98 86 89 
95 92 96 47 95 52 72 65 103 84 55 51 98 96 72 46 72 55 105 89 63 104 70 60 56 54 56 72 89 76 71 73 71 100 101 56 48 92 83 45 80 47 81 46 102 63 56 61 69 81 95 71 71 93 46 85 69 82 64 73 
68 53 105 60 99 47 91 86 79 67 62 69 103 84 45 91 67 96 70 77 60 87 102 46 97 89 98 63 90 99 99 49 96 59 79 75 86 78 48 61 105 48 102 52 59 87 58 47 83 94 102 92 104 79 82 61 62 105 95 69 
94 104 87 50 49 61 56 78 90 53 55 103 47 79 61 70 97 61 80 62 91 73 66 68 75 100 57 54 67 101 81 45 93 52 86 48 73 86 89 46 83 95 75 49 104 81 64 101 81 69 80 81 75 65 55 78 45 95 59 48 
74 51 88 51 64 50 46 76 62 83 104 85 92 71 49 45 80 94 74 85 65 68 70 46 84 83 46 80 101 65 79 99 77 95 79 64 77 75 55 69 69 69 84 96 94 67 66 96 60 91 105 55 93 57 85 68 90 47 51 99 
89 76 79 69 96 73 80 46 89 50 57 86 76 53 105 49 60 60 99 57 79 72 89 86 52 62 45 50 97 104 101 78 90 69 55 100 52 88 95 70 83 73 58 97 58 99 105 50 91 83 67 60 97 57 97 105 74 73 48 91 
84 101 79 77 61 59 60 101 103 98 102 73 63 78 57 94 49 55 81 83 91 63 96 96 93 68 51 69 87 76 57 57 84 60 57 63 99 45 70 75 56 84 66 89 92 87 73 72 101 67 84 78 95 93 85 77 76 63 63 74 
95 68 102 80 92 95 82 92 96 103 92 66 96 87 88 51 98 69 102 48 70 71 91 104 78 88 64 51 55 53 72 69 103 65 65 61 97 53 57 95 67 70 85 103 85 73 77 81 102 45 68 61 99 63 86 54 60 101 75 76 
83 76 73 72 83 46 79 48 49 97 58 89 103 60 95 54 66 85 81 72 78 81 79 91 60 97 87 54 84 46 56 52 63 81 82 89 58 85 101 97 100 75 84 91 53 54 72 81 61 49 94 82 96 87 92 103 51 99 80 61 
47 48 74 62 99 57 76 103 88 89 61 45 72 60 62 64 85 52 47 99 46 55 86 79 85 100 95 101 84 83 66 62 48 90 58 61 102 63 62 94 80 81 81 47 72 58 72 49 56 84 93 61 50 101 80 103 51 79 75 83 
103 94 71 60 50 91 97 95 67 96 81 67 61 89 84 96 74 81 83 83 50 52 49 67 89 54 62 88 94 49 86 100 64 85 51 79 81 47 61 84 57 54 98 99 76 97 50 66 89 95 65 81 62 104 82 88 97 72 85 48 
103 63 45 52 72 50 51 85 51 89 91 70 64 105 97 58 98 58 77 58 60 61 83 104 73 70 72 54 85 82 76 94 64 60 47 86 89 74 90 63 101 80 89 95 64 85 97 45 90 88 86 51 103 55 98 103 104 48 89 83 
76 102 71 71 86 53 53 77 103 79 74 48 71 79 89 65 79 51 62 97 91 81 85 88 77 98 92 61 71 58 104 99 47 86 99 53 52 55 99 94 66 86 74 89 59 89 95 80 70 80 63 104 91 88 49 72 66 105 92 64 
74 89 98 62 100 74 77 64 76 103 76 86 84 49 48 71 93 49 60 68 47 56 69 55 87 97 49 92 47 105 73 83 79 99 55 53 47 89 75 102 68 82 53 98 64 52 61 50 55 83 93 92 60 79 59 72 74 75 102 76 
70 52 103 64 78 74 58 56 56 87 75 60 100 68 105 75 89 73 51 98 100 88 99 45 102 71 105 65 87 70 66 96 90 46 76 53 95 94 73 76 88 54 46 55 48 64 101 73 74 57 74 62 79 55 46 97 80 68 66 59 
68 71 82 54 102 62 104 104 79 105 65 71 97 86 83 85 50 48 96 84 68 103 61 69 51 63 52 74 66 86 68 61 79 61 73 98 66 77 94 52 92 53 102 82 49 86 58 47 62 61 94 89 52 83 100 52 69 63 90 99 
94 89 85 56 67 92 90 54 67 54 77 86 99 66 68 89 47 100 85 99 65 61 61 91 94 45 74 90 75 72 75 83 103 90 90 100 62 96 58 103 94 102 64 50 59 72 97 58 76 50 90 98 45 67 102 95 91 104 102 51 
77 101 92 73 61 63 49 102 101 61 58 46 54 84 79 96 64 93 53 65 83 81 58 66 99 97 77 102 66 97 70 61 47 95 63 77 45 83 70 68 86 52 59 49 85 95 52 90 100 78 101 89 47 77 89 79 57 80 60 102 
96 103 76 49 80 95 53 53 63 84 80 75 93 67 105 48 63 69 71 98 45 60 68 69 66 60 88 58 68 72 85 96 47 103 102 76 45 56 73 55 77 66 45 95 102 99 73 73 59 103 58 94 83 46 90 102 48 94 74 67 
105 123 148 99 137 125 148 147 142 99 121 107 100 135 149 104 133 132 101 143 149 116 109 155 139 141 98 129 113 151 129 112 125 138 102 141 148 138 102 125 117 97 151 123 132 151 118 154 145 141 150 152 98 116 122 118 152 107 108 110 
108 122 102 118 139 106 117 139 142 130 141 142 139 132 102 146 144 147 96 113 104 111 147 104 100 155 125 130 146 109 154 105 119 112 116 137 99 151 140 103 131 119 135 125 120 105 141 132 151 155 155 104 107 105 155 138 149 143 135 141 
135 114 132 124 151 109 113 99 104 101 99 152 153 115 129 98 123 105 129 95 154 116 97 116 97 149 103 135 144 106 154 148 142 150 97 113 106 106 148 100 102 101 154 135 95 133 120 104 101 107 102 123 151 150 138 113 96 123 148 145 
135 136 110 98 136 125 143 106 116 114 154 103 111 139 127 134 155 110 122 152 144 149 95 120 131 110 121 106 146 102 99 121 98 134 107 123 147 149 122 134 102 114 116 120 103 115 146 119 136 135 112 128 127 142 127 149 111 115 104 117 
113 148 104 112 112 142 147 155 123 116 98 105 139 136 133 148 104 121 149 121 150 152 109 126 119 124 123 97 96 126 132 120 108 114 126 95 110 121 112 117 99 147 131 124 117 150 120 124 115 146 144 96 110 139 153 137 96 138 135 101 
120 123 134 111 146 120 134 102 126 112 128 148 101 146 121 135 99 125 118 128 106 107 99 111 155 101 111 108 121 99 118 108 132 95 98 99 110 140 154 134 99 147 129 107 120 111 132 104 130 121 133 132 95 147 138 132 123 123 125 115 
115 121 148 155 145 152 116 115 144 123 114 128 113 95 102 144 148 128 118 132 119 148 128 121 140 151 97 114 130 112 127 151 130 118 152 151 115 110 96 143 99 114 154 128 101 96 104 104 144 145 101 150 101 143 133 100 117 100 105 108 
102 102 119 145 153 142 135 140 143 141 121 114 135 109 154 118 154 101 155 100 96 123 120 111 102 135 129 109 138 120 139 141 113 108 96 112 132 118 129 96 151 154 103 120 131 104 103 106 145 130 120 134 101 142 119 124 99 133 131 119 
147 154 136 139 143 103 152 138 144 106 130 148 115 102 97 127 153 103 107 147 98 119 132 121 135 104 117 142 109 104 133 133 114 131 100 153 124 123 151 104 131 153 111 153 106 149 125 129 124 151 96 137 146 110 111 148 131 96 99 140 
116 106 128 154 130 115 109 144 124 151 141 117 97 135 101 154 138 147 125 127 150 153 107 155 149 110 108 105 109 142 139 117 142 127 154 113 110 119 147 148 130 139 119 155 114 109 125 143 146 126 152 111 122 153 100 119 145 138 109 112 
101 145 101 119 148 152 136 95 102 123 125 150 118 141 132 116 130 133 142 126 121 132 132 146 101 114 116 144 143 101 145 105 96 139 103 145 102 118 153 128 111 109 118 149 101 130 132 135 133 152 110 152 147 142 114 155 105 151 108 133 
105 97 110 98 120 99 111 140 117 154 132 110 129 118 139 116 135 99 127 146 139 152 151 151 151 151 139 105 153 107 147 125 152 135 112 142 150 106 112 139 113 122 135 132 116 131 96 155 127 129 118 144 115 97 103 125 132 115 136 139 
107 155 128 148 141 129 97 154 97 134 138 111 151 139 141 139 105 127 114 129 138 113 118 140 133 95 121 148 147 111 105 148 135 96 103 152 135 118 131 138 117 126 145 137 117 102 131 143 144 148 123 127 105 131 99 103 113 109 155 96 
100 153 149 103 118 105 152 100 143 127 104 148 121 144 145 100 98 125 150 105 127 119 117 108 127 136 137 110 118 146 121 131 136 135 150 125 96 154 126 101 124 122 145 132 135 139 110 113 134 152 97 144 120 106 150 124 135 96 134 122 
125 146 121 100 95 104 132 99 110 121 137 153 102 111 113 118 150 146 154 147 112 138 111 132 129 133 149 119 136 146 138 140 151 137 134 140 98 101 151 129 107 111 110 121 127 96 142 98 99 130 107 106 97 137 104 113 115 152 147 109 
127 143 103 132 142 119 123 134 115 133 101 113 124 123 137 122 117 134 131 124 99 108 138 127 150 122 145 155 148 98 115 143 142 147 151 152 142 130 119 140 111 142 151 142 135 150 126 139 117 150 125 126 124 96 128 150 149 149 118 154 
147 133 149 140 147 98 147 151 153 109 137 129 134 112 105 138 155 129 110 97 144 128 108 155 124 110 107 153 110 118 133 103 139 152 139 134 131 127 120 107 124 152 118 111 154 104 125 103 152 124 149 98 100 101 155 138 139 135 119 111 
122 154 148 114 119 133 103 129 126 151 134 120 147 148 143 112 137 135 139 139 99 132 98 111 110 136 111 101 138 154 96 110 95 118 133 143 155 154 116 133 150 139 148 150 129 131 152 128 133 132 96 150 113 155 129 118 111 155 113 153 
116 112 154 136 125 134 139 106 147 101 115 124 131 140 145 128 114 122 126 137 110 111 121 129 133 140 130 148 114 138 100 97 141 135 104 149 101 113 149 116 136 151 108 145 103 111 117 132 150 154 132 120 148 154 143 99 112 147 153 154 
146 153 100 116 105 145 128 150 124 115 145 100 121 131 145 148 154 111 110 117 117 136 150 140 111 119 125 136 104 134 127 140 123 140 154 96 142 145 128 95 111 144 119 96 122 114 142 151 132 119 129 136 148 101 147 152 95 99 144 116 
164 149 148 195 178 181 190 195 149 201 205 179 168 190 188 189 196 160 204 200 180 158 159 165 192 199 157 194 153 205 193 150 190 171 169 183 165 199 151 184 190 152 205 150 180 203 176 156 154 181 148 166 157 167 168 184 156 169 171 204 
186 198 157 148 181 147 183 203 175 175 201 184 178 164 181 161 172 173 160 189 183 183 162 191 172 154 204 165 160 171 193 195 154 177 156 159 176 205 186 171 177 181 180 152 171 147 170 181 203 171 188 180 173 191 165 170 169 194 173 149 
167 187 172 190 165 173 155 154 200 192 187 158 159 147 195 203 183 155 168 168 195 147 168 195 166 199 164 180 175 170 149 194 191 182 199 176 178 205 165 154 189 183 148 198 178 155 190 196 157 147 195 148 154 149 178 170 169 201 183 190 
161 203 151 155 163 170 194 200 196 181 195 190 173 197 183 156 188 195 152 172 184 198 175 151 181 148 180 174 179 191 159 180 182 153 151 194 176 165 178 184 173 171 186 185 176 197 148 198 204 176 188 147 185 194 191 167 157 192 184 200 
182 201 168 185 153 148 182 182 166 169 185 199 150 176 188 181 186 151 195 164 184 160 146 184 195 171 202 161 190 199 204 180 182 146 190 199 198 183 145 194 181 168 155 192 171 180 174 169 193 154 152 145 173 175 196 163 203 195 170 169 
199 156 170 182 192 168 172 170 148 191 158 195 148 150 199 167 162 183 159 157 201 151 175 146 156 150 166 171 163 168 156 158 187 163 148 182 172 181 157 199 204 186 195 185 192 183 204 145 172 154 168 146 158 197 205 163 172 184 159 184 
149 180 177 149 150 167 184 150 202 204 173 186 165 162 183 152 162 185 172 179 165 179 164 202 145 198 146 164 186 166 166 203 173 191 152 155 170 195 191 160 158 162 205 167 167 194 188 145 152 160 177 189 148 174 174 179 176 184 152 178 
192 195 159 187 145 177 151 150 200 193 167 178 199 154 150 188 147 151 189 163 171 156 170 153 150 188 177 175 190 193 181 159 160 156 183 162 173 161 145 191 155 148 191 156 197 205 169 198 169 190 195 177 146 190 177 149 158 186 169 182 
155 146 148 171 186 150 203 172 186 179 187 177 198 189 190 168 155 180 152 157 175 181 156 174 155 198 201 166 145 175 181 161 151 199 182 192 194 183 183 178 177 200 189 189 202 178 153 152 177 186 157 169 186 147 205 198 202 172 179 167 
175 169 192 159 162 162 170 149 155 181 180 187 152 201 173 161 163 194 184 203 191 187 148 169 152 149 161 161 159 202 177 156 190 165 151 201 151 180 185 155 203 172 183 184 204 150 188 198 153 148 161 175 145 200 188 163 179 171 190 151 
159 148 196 181 198 148 164 197 203 203 202 184 164 181 168 161 172 165 166 147 187 190 157 148 177 178 188 193 186 201 163 154 203 160 199 179 169 185 182 146 177 145 177 160 180 196 167 199 145 203 186 160 181 191 157 170 192 196 163 178 
165 161 188 174 157 179 181 162 199 187 158 165 164 177 200 182 154 180 199 204 174 148 204 178 166 167 174 174 152 167 201 184 181 183 188 180 172 170 168 174 204 148 148 188 170 171 196 159 194 181 154 157 192 151 160 155 188 172 185 204 
172 145 164 177 195 185 170 199 159 195 145 179 187 185 167 174 194 176 146 175 149 184 187 194 145 193 162 159 183 180 173 145 181 197 153 184 146 179 183 196 185 159 173 146 191 191 193 151 188 146 202 202 146 151 168 148 187 163 153 187 
163 183 167 148 167 180 184 157 155 204 175 152 190 195 167 194 174 147 160 164 156 168 192 148 180 149 173 168 177 154 171 171 205 156 165 205 158 173 157 147 167 147 176 189 187 155 199 205 159 178 181 154 160 145 148 193 164 153 198 194 
199 165 191 183 203 151 156 164 171 163 151 202 197 191 175 149 204 160 145 153 181 156 173 151 150 185 197 156 162 155 166 188 187 186 194 159 192 151 190 197 169 145 180 164 180 172 195 168 148 147 192 185 146 164 157 192 196 180 167 180 
161 188 176 164 169 155 146 187 165 159 197 185 196 201 182 188 177 189 157 195 177 173 157 200 158 204 163 159 162 196 179 183 205 146 175 170 183 195 192 166 173 205 149 192 170 153 162 201 150 161 197 179 164 161 146 186 172 156 156 164 
185 163 174 179 156 194 173 153 189 168 167 167 145 180 150 156 165 169 162 199 188 184 145 193 172 203 203 149 186 154 157 194 158 160 203 161 204 150 158 185 152 160 198 197 169 198 163 176 187 165 180 167 197 187 200 171 193 149 192 163 
163 147 161 163 175 196 179 179 169 181 181 179 152 154 175 168 204 188 203 203 171 186 199 173 162 146 186 161 155 148 198 155 177 146 183 156 195 167 205 197 198 187 184 200 167 161 152 172 199 161 163 149 164 147 186 199 163 158 149 180 
191 174 201 165 199 184 147 172 156 204 196 192 149 199 200 186 185 186 196 167 162 168 193 173 189 165 168 204 176 171 181 161 162 153 204 155 169 199 184 196 179 199 187 152 175 189 201 166 152 178 161 158 183 158 158 159 176 151 186 155 
167 159 167 176 156 178 170 148 196 172 148 152 198 174 187 148 200 198 172 183 183 152 163 188 203 203 198 180 178 185 197 168 153 180 178 151 197 175 176 192 156 150 161 183 157 153 169 153 151 197 179 179 179 189 172 187 178 179 161 205 
252 255 253 212 224 207 215 244 206 237 215 213 245 235 210 235 220 255 236 254 236 216 248 223 223 209 214 220 229 207 228 231 245 249 202 239 205 219 251 245 223 198 247 241 247 214 207 203 228 232 244 223 226 195 215 231 235 203 211 202 
217 196 199 212 232 227 231 251 243 217 195 233 248 250 244 201 252 249 205 253 230 213 234 255 212 235 230 205 201 246 241 247 240 225 249 230 239 226 209 214 229 249 225 247 218 228 210 236 233 213 224 232 205 232 217 197 217 234 200 197 
219 232 248 197 216 220 197 252 196 255 233 226 227 216 212 240 218 234 230 204 196 239 219 217 218 195 216 226 226 211 207 245 254 235 251 235 200 220 220 234 207 250 196 227 205 204 245 212 254 250 238 234 243 252 204 213 227 197 233 227 
250 197 221 201 239 223 246 228 198 233 253 240 207 220 237 228 245 207 236 213 247 228 252 246 216 210 225 222 244 202 244 218 210 249 244 238 205 227 235 220 221 236 209 198 208 209 208 204 211 238 226 217 227 221 236 246 252 229 248 209 
241 254 209 250 255 225 248 206 234 204 215 224 242 225 197 197 244 247 222 212 201 229 232 198 206 208 232 198 240 208 230 225 247 208 230 244 222 254 218 241 254 196 221 239 205 248 234 250 249 197 213 240 218 204 253 215 222 225 226 230 
246 212 239 209 252 204 250 236 196 252 239 215 252 228 252 232 245 251 200 198 237 218 215 209 204 236 208 216 250 237 240 233 236 248 234 223 203 252 226 243 224 236 204 211 244 211 212 215 202 218 203 211 229 223 236 212 241 204 200 224 
214 207 212 209 199 220 215 253 217 247 239 203 246 195 252 225 202 252 244 243 227 217 214 215 235 210 218 234 240 255 253 231 240 206 208 243 222 255 245 224 196 198 229 229 244 195 230 253 232 248 204 250 248 253 246 222 244 210 235 253 
213 225 215 245 207 235 217 250 240 248 254 207 203 244 254 234 237 244 246 215 233 195 226 203 230 199 239 213 222 223 209 217 223 239 212 213 197 240 216 220 236 223 236 223 252 218 226 253 234 215 199 203 245 244 210 254 200 253 198 224 
255 218 255 250 251 227 221 247 238 233 246 244 222 216 213 245 229 211 218 213 221 235 252 234 234 196 220 202 200 237 226 202 195 203 228 224 251 238 214 197 236 232 236 226 248 220 242 218 201 216 205 206 223 198 212 250 228 223 247 195 
204 205 199 237 246 219 234 227 234 254 231 211 248 246 199 199 253 219 227 223 239 243 207 244 223 232 195 232 211 248 249 198 230 253 214 229 198 212 252 236 211 245 238 254 196 242 238 254 234 239 246 216 223 213 215 199 223 230 232 218 
207 196 246 251 210 201 196 254 250 222 226 242 220 229 244 246 214 230 224 218 196 250 205 202 228 246 240 251 233 206 227 235 216 244 201 221 217 246 236 233 208 205 200 196 228 237 218 248 254 237 253 195 224 206 234 236 247 213 231 247 
252 247 227 223 250 208 236 255 221 218 220 230 239 211 242 246 250 197 221 224 211 231 201 228 220 220 211 211 238 253 226 217 255 222 224 244 195 239 233 217 253 200 199 201 228 245 233 206 199 239 205 199 236 217 241 224 234 195 229 240 
200 225 214 226 221 239 209 224 240 236 208 204 238 217 225 232 247 246 255 198 219 229 211 233 215 245 204 200 247 232 246 252 251 219 255 209 240 249 229 247 198 249 244 226 234 227 198 204 236 216 230 232 211 207 254 203 221 208 196 209 
205 244 226 198 226 226 240 213 249 215 241 213 216 204 240 245 234 243 222 227 236 238 222 232 242 210 235 204 217 195 247 253 217 221 254 239 237 250 198 198 254 221 225 244 223 245 198 195 254 196 210 217 225 252 218 244 251 228 223 209 
206 250 235 226 254 195 250 228 217 254 197 246 208 249 253 211 221 245 202 243 251 209 238 197 249 196 251 225 202 234 232 238 217 220 244 238 222 217 251 237 249 241 196 252 236 239 246 211 229 204 237 215 197 210 249 240 244 225 238 196 
222 207 239 214 197 198 243 205 199 196 234 205 210 234 232 240 196 255 245 201 245 248 234 224 250 222 221 233 211 226 217 199 202 213 202 254 204 222 247 212 251 204 215 200 197 247 229 209 202 247 225 210 243 217 202 253 228 211 252 199 
213 210 207 240 254 219 222 216 214 224 216 221 240 210 213 196 239 228 196 233 217 195 221 211 210 248 226 235 244 221 238 204 242 205 226 213 248 240 215 230 229 230 230 219 226 213 236 213 196 201 206 210 251 253 247 218 237 204 237 197 
232 240 232 237 255 221 237 220 251 242 226 200 242 243 220 253 233 203 232 199 246 248 212 250 196 228 229 237 205 244 248 252 234 225 210 252 227 226 249 241 210 240 223 230 222 217 246 234 206 250 255 232 205 209 220 225 239 213 205 234 
195 254 242 196 252 227 227 196 227 251 244 228 212 219 242 248 250 235 253 255 246 211 255 221 217 246 232 208 238 206 224 225 245 197 239 238 222 224 203 209 248 250 235 208 217 255 223 210 241 200 220 240 225 214 203 197 227 239 248 251 
216 227 244 247 230 203 240 220 235 225 211 198 231 255 219 218 220 198 254 213 222 225 247 218 230 199 215 198 214 236 241 254 219 215 245 230 226 254 207 253 233 236 237 252 208 228 228 198 249 197 238 246 207 203 204 246 210 232 255 218 
