P2
#imagem2.pgm
100 100
255
85 21 90 164 49 183 252 159 20 100 244 213 167 152 114 207 6 32 170 45 45 220 29 58 217 127 174 134 144 87 108 229 109 198 138 158 126 134 61 146 234 50 103 145 202 217 96 208 249 11 253 39 231 26 97 192 154 15 70 42 103 179 15 212 121 153 114 247 32 175 137 10 225 240 156 172 201 252 124 195 7 122 234 238 148 75 174 46 90 245 88 193 168 104 149 33 1 7 25 33 
183 162 44 152 147 200 68 92 196 193 31 204 59 9 186 207 84 105 254 175 94 86 112 6 190 6 39 192 13 64 225 196 227 13 93 118 213 161 210 154 98 242 102 157 251 32 109 80 137 107 255 231 193 111 237 128 117 21 64 131 85 33 71 56 47 164 174 4 70 129 158 168 115 4 70 110 37 179 190 174 30 189 150 223 45 131 95 162 152 159 37 238 193 109 38 240 17 213 244 87 
86 147 0 201 151 70 55 188 249 246 107 23 179 1 246 224 132 86 131 29 245 168 11 182 21 49 166 39 6 155 126 92 46 126 37 197 196 93 130 189 83 237 212 6 238 203 231 114 33 106 143 22 18 154 205 40 204 115 79 210 14 205 47 60 76 84 2 16 177 132 206 4 113 162 11 95 109 242 209 142 92 97 165 110 251 114 150 199 229 229 154 244 179 201 48 255 29 50 15 207 
182 221 211 39 128 222 134 237 208 88 124 44 185 33 155 180 147 49 124 120 23 22 108 202 223 157 201 252 207 216 203 134 182 159 173 54 125 52 35 78 140 159 122 69 192 21 249 83 71 117 204 94 139 56 40 106 213 241 103 165 201 50 43 127 209 216 181 79 12 217 157 152 120 23 221 57 45 215 140 116 76 88 210 216 145 250 66 102 235 169 11 180 220 54 52 173 15 233 252 27 
194 153 180 59 177 145 116 222 104 0 82 181 89 36 141 234 30 207 80 9 121 92 189 85 146 241 2 161 219 255 189 157 152 113 216 73 2 76 39 107 77 121 32 166 157 173 144 187 124 224 196 245 60 130 74 207 115 77 112 78 76 45 236 228 158 196 46 161 17 85 12 94 207 44 4 108 217 148 40 85 116 236 75 177 110 149 128 226 226 240 48 46 30 28 19 188 225 65 93 242 
150 105 80 101 149 84 210 110 232 250 196 92 230 15 13 85 164 141 55 135 126 103 181 156 132 200 88 101 9 182 87 160 31 167 5 181 251 215 35 227 209 231 63 184 246 77 13 155 218 68 34 88 171 215 244 47 160 77 148 169 3 235 73 34 146 79 215 141 38 251 112 248 226 176 176 217 253 189 116 215 1 150 48 172 109 36 220 13 113 112 183 116 92 0 151 238 79 110 124 118 
105 236 110 76 156 30 37 153 219 153 113 220 47 161 136 156 197 100 170 55 213 97 171 49 97 66 31 177 177 155 39 26 136 149 102 36 179 139 190 142 36 47 106 83 208 242 240 149 87 154 204 44 251 120 93 92 186 124 13 107 24 52 134 160 201 236 196 124 120 130 10 156 177 116 240 129 103 224 23 190 122 227 234 117 91 71 209 22 195 223 129 219 19 7 123 221 244 64 89 108 
194 100 8 116 216 248 245 63 216 12 253 82 240 231 199 75 46 153 97 242 120 227 205 139 234 73 104 222 137 194 74 75 38 83 191 254 75 181 62 36 193 59 118 177 35 62 253 81 215 94 67 79 65 17 218 44 90 67 10 227 5 85 46 43 168 238 41 243 163 103 23 100 163 142 22 198 204 19 23 163 113 91 242 179 108 204 223 198 15 233 169 20 62 215 63 230 197 105 218 104 
208 241 205 115 127 227 57 75 246 81 238 103 172 224 26 24 173 249 222 188 227 135 209 33 94 16 8 36 121 226 140 74 211 89 189 83 60 247 158 50 72 141 154 244 109 180 12 26 174 234 215 145 113 168 178 207 184 186 243 50 156 128 124 112 217 57 195 22 48 97 72 120 238 226 108 92 151 120 118 69 98 77 214 211 245 136 163 174 67 150 224 223 22 92 79 240 149 18 6 198 
116 78 62 98 49 171 190 200 35 53 13 134 130 227 89 120 107 252 38 174 147 6 142 169 98 221 153 247 240 159 189 100 238 252 198 31 167 133 231 202 186 244 80 60 215 170 180 66 166 218 241 57 224 127 227 66 92 124 58 76 28 247 176 10 243 119 41 154 252 16 101 182 4 181 242 219 95 167 29 6 129 14 63 98 141 34 164 234 159 222 54 187 214 231 197 201 94 238 100 90 
254 201 16 2 126 2 221 222 169 250 228 43 9 35 141 150 70 49 128 229 16 183 160 230 158 101 175 252 83 19 86 81 220 102 83 91 104 48 57 18 42 29 61 51 64 202 202 134 251 74 107 11 1 11 241 159 112 161 155 195 180 241 20 145 87 103 236 192 151 37 210 194 66 15 245 130 217 191 9 212 10 116 224 11 128 209 171 240 114 70 180 39 56 200 184 143 48 164 79 199 
201 33 137 11 48 127 141 9 62 150 222 72 11 190 84 139 143 255 123 2 69 47 41 125 248 225 13 40 133 92 239 78 126 121 89 174 248 230 184 54 125 150 127 136 84 211 19 227 210 142 229 23 190 14 149 182 239 162 222 116 254 205 194 124 70 27 43 62 2 227 117 127 121 244 7 205 199 26 176 153 168 150 176 102 164 69 28 148 231 250 8 230 200 203 98 14 230 141 77 232 
112 194 103 233 182 110 182 125 136 103 22 49 253 198 151 161 12 180 53 243 174 62 217 118 9 60 133 239 201 210 216 58 148 63 35 74 174 218 199 54 65 221 103 62 163 255 223 175 179 21 163 97 83 124 216 92 184 93 75 130 47 35 188 195 99 223 13 17 185 212 71 250 177 175 56 84 174 24 4 97 45 167 194 128 35 154 220 220 247 39 94 38 75 26 233 174 249 246 191 179 
202 6 173 123 181 230 208 99 254 212 196 43 123 135 171 158 33 135 122 25 174 216 63 249 242 41 167 236 31 102 159 234 109 76 101 34 50 53 134 48 9 74 91 132 209 6 35 243 141 157 12 60 118 75 53 104 116 221 84 148 67 243 126 176 64 227 211 114 25 89 163 34 163 254 167 117 5 202 104 146 103 116 206 221 191 4 70 52 225 154 200 36 142 70 213 206 41 168 64 66 
1 227 101 164 226 12 25 231 214 129 121 61 245 72 27 181 76 97 233 45 251 177 81 137 247 38 87 32 206 152 99 207 123 200 116 93 212 141 68 170 15 190 231 4 6 2 185 82 99 162 127 95 83 208 232 74 247 64 107 197 216 206 149 83 150 9 177 106 150 245 20 165 179 251 170 185 254 99 11 97 6 138 192 89 91 169 164 82 233 15 23 193 221 172 20 115 181 197 221 76 
187 241 241 110 236 155 40 234 255 51 76 5 190 12 94 25 181 2 107 158 17 130 95 238 47 116 97 228 57 62 48 244 47 34 99 28 189 139 6 188 190 82 193 124 95 32 149 20 34 0 179 52 131 18 34 178 134 132 150 192 194 199 180 242 233 23 14 166 162 20 99 97 103 36 221 198 68 115 218 103 115 141 155 246 160 189 168 38 65 63 230 4 6 155 246 239 178 4 149 85 
24 248 182 127 29 147 69 97 6 32 200 122 173 99 112 77 33 25 116 98 88 90 102 94 245 92 77 168 96 226 253 121 219 179 248 248 70 62 89 77 94 34 199 11 133 55 89 166 80 205 9 168 39 111 6 29 204 83 197 44 54 194 165 17 117 158 9 187 220 98 8 58 132 207 69 10 7 158 176 87 107 185 0 147 41 6 176 245 90 117 33 144 55 199 161 172 101 170 103 65 
12 112 123 145 63 192 155 70 95 75 158 202 5 158 93 46 164 13 35 254 130 68 142 185 11 47 101 112 217 205 177 230 61 44 119 124 237 18 195 76 93 97 22 98 255 116 144 163 129 179 162 4 248 48 189 3 96 35 116 57 240 37 31 45 82 150 169 63 168 108 139 6 205 161 104 204 21 249 112 151 172 18 155 164 66 88 168 162 123 28 220 107 65 251 152 147 146 66 210 58 
174 93 64 124 255 169 72 20 162 184 171 78 202 70 243 13 159 155 175 26 183 139 134 248 135 30 140 25 96 94 83 15 188 148 139 187 61 211 207 223 140 123 45 86 193 32 99 96 187 19 123 114 158 1 107 37 31 247 62 128 85 146 143 17 38 26 204 99 237 156 66 121 23 111 208 216 144 51 57 75 70 180 190 229 181 41 10 212 32 73 84 117 219 227 135 1 253 83 100 235 
239 166 100 6 21 52 223 165 104 24 241 174 204 175 147 129 216 158 85 248 231 170 109 194 141 244 195 139 72 39 118 55 205 218 62 226 15 29 136 119 53 121 37 1 40 185 130 0 87 215 248 62 129 101 0 15 90 195 154 162 234 16 217 183 234 23 153 249 52 33 112 105 154 150 106 194 79 236 194 166 196 186 228 69 32 228 84 122 167 238 28 145 254 245 72 233 13 225 226 65 
3 83 171 157 233 21 96 56 2 34 222 198 221 194 11 253 166 96 119 77 78 147 222 77 136 38 54 149 7 24 215 10 107 130 168 84 151 8 140 153 42 106 95 7 44 107 4 210 203 123 31 25 14 253 102 151 35 156 44 43 181 3 53 32 133 221 117 29 229 1 182 16 108 22 23 152 129 28 107 76 151 138 101 166 136 204 61 171 104 105 214 29 109 12 62 242 233 179 15 207 
180 198 223 32 220 246 185 93 18 36 169 170 174 14 80 54 218 141 226 67 246 184 96 99 196 158 86 174 81 101 125 6 43 92 38 7 82 223 100 101 3 13 15 178 28 95 232 246 236 202 57 226 131 154 70 71 56 156 245 138 1 114 144 45 206 182 52 33 150 153 134 153 166 149 75 194 244 52 185 224 254 242 194 129 140 8 201 197 164 190 79 166 49 223 211 255 149 7 32 43 
160 166 197 71 59 16 9 47 68 194 15 67 181 210 196 65 218 141 6 127 76 85 37 125 52 248 124 202 255 157 245 160 67 186 231 127 203 240 174 15 179 190 82 104 144 23 169 106 164 176 233 240 5 14 109 58 6 234 4 6 135 249 166 202 180 141 73 127 125 248 142 48 182 225 152 70 248 66 176 156 242 154 141 247 168 250 49 175 228 53 181 107 47 91 54 227 232 127 98 101 
119 240 150 45 209 46 115 201 112 36 102 98 190 243 90 102 237 139 21 210 193 202 61 240 37 115 211 13 243 53 115 106 37 9 152 247 55 11 192 168 47 38 10 237 25 100 84 7 240 105 217 177 52 22 161 89 138 116 103 125 169 218 231 206 227 127 197 26 139 134 194 186 172 205 168 198 49 252 205 33 101 166 210 153 188 115 243 70 231 90 195 144 52 171 95 23 42 36 49 181 
170 244 112 87 193 24 29 242 20 234 20 121 144 230 19 76 90 6 147 65 96 86 210 148 1 49 171 44 85 220 225 0 208 81 87 145 105 116 132 125 94 152 247 238 126 10 58 216 16 205 26 112 36 236 4 37 29 175 81 114 139 51 114 92 132 201 237 238 61 113 107 155 9 98 137 136 108 196 96 124 145 122 236 181 102 240 219 131 159 44 246 43 95 104 135 228 50 116 210 111 
230 61 11 239 160 148 119 12 88 216 137 234 82 117 159 185 102 122 60 5 167 50 48 6 155 183 234 205 44 188 60 18 250 71 1 154 220 121 166 52 81 47 30 163 165 190 92 11 56 153 16 223 203 65 230 102 248 208 51 36 141 112 54 135 183 56 33 147 177 199 200 2 247 230 165 156 164 2 167 221 155 183 188 102 248 162 205 241 115 0 21 0 112 76 135 40 132 168 187 53 
111 131 55 102 106 220 2 14 222 169 235 121 97 168 224 89 74 173 74 189 173 96 189 30 172 68 70 48 236 1 101 92 133 156 194 239 120 197 253 87 110 233 208 207 145 176 41 219 93 115 153 11 211 86 41 127 155 111 175 135 112 20 227 245 176 166 228 41 107 226 128 217 203 80 169 92 1 210 55 94 69 208 105 25 39 146 152 194 1 72 73 114 92 45 103 13 211 76 54 62 
46 182 23 249 6 192 85 7 146 140 102 216 93 207 241 132 98 137 70 99 209 143 213 46 188 61 59 143 137 113 205 183 39 229 176 45 165 5 53 56 145 155 16 238 106 1 114 204 138 184 48 92 72 5 138 4 66 197 148 203 54 97 130 93 70 50 138 236 55 191 36 201 90 52 183 197 53 42 145 191 226 193 27 42 199 165 47 9 106 195 213 160 36 87 253 107 138 136 87 193 
71 123 138 162 175 66 103 228 108 248 163 78 186 191 121 129 100 168 138 207 107 95 111 143 183 109 250 65 245 81 2 60 204 141 222 123 207 69 95 59 62 3 137 248 194 2 121 38 170 3 245 21 99 101 165 26 210 159 91 199 241 93 3 189 234 226 57 185 39 152 244 101 155 126 93 93 128 214 132 43 218 121 64 61 222 229 87 176 133 178 119 118 15 123 51 250 93 108 179 132 
5 168 234 160 38 71 254 166 30 130 209 248 251 18 53 218 247 140 138 124 62 2 242 77 125 38 71 218 146 251 94 151 163 72 56 201 144 54 111 174 184 65 166 179 83 219 141 74 103 24 199 165 26 185 242 151 223 58 113 114 53 207 9 216 24 65 161 168 119 16 86 47 81 252 227 164 215 112 239 62 136 182 227 162 111 213 57 79 15 170 193 68 122 202 28 146 12 189 58 131 
206 144 179 31 140 150 196 99 6 179 161 143 105 132 49 216 89 107 39 105 21 232 173 143 179 202 33 191 135 91 66 85 235 245 117 119 139 57 218 146 236 123 33 85 255 82 45 89 189 85 194 211 61 111 98 240 57 132 175 193 223 242 22 203 231 139 66 115 196 29 5 176 152 38 5 152 120 51 241 54 136 179 9 197 34 107 182 92 239 101 29 207 87 51 154 63 191 220 178 131 
249 183 52 146 221 57 42 85 108 27 139 244 206 148 186 240 0 112 76 239 213 105 190 45 157 88 108 92 53 30 223 46 213 19 192 178 77 234 7 185 5 147 174 211 39 104 196 39 216 16 23 173 122 213 218 23 46 70 115 99 100 82 145 57 102 82 235 179 60 243 108 66 134 26 21 173 130 217 213 90 234 236 8 100 193 226 123 239 41 238 82 141 64 228 199 166 54 178 89 114 
165 198 180 43 224 202 217 99 163 174 189 141 154 197 241 91 168 108 75 209 90 157 94 155 129 37 65 183 216 155 42 125 97 222 169 65 168 130 164 76 48 98 217 202 39 203 37 207 55 112 160 146 14 255 45 143 36 110 71 252 9 113 122 106 79 35 172 248 165 80 68 213 178 29 159 218 232 196 169 32 53 74 178 67 73 223 210 109 77 25 106 87 138 228 193 218 7 109 210 172 
190 22 129 112 51 32 74 28 228 244 60 25 62 238 92 135 205 47 244 26 72 94 113 211 66 51 173 73 160 127 245 94 149 118 207 200 150 25 228 123 13 32 148 75 14 241 210 219 32 199 246 104 37 103 59 104 154 232 177 59 103 167 153 252 29 104 197 180 130 169 47 143 202 195 219 216 180 173 180 212 116 170 61 154 17 120 2 172 97 179 231 200 90 128 197 120 233 138 44 107 
51 91 250 253 30 213 214 211 131 138 167 247 52 228 145 69 93 147 241 190 71 216 134 161 89 75 25 66 213 69 173 9 160 167 6 191 125 220 146 0 102 57 247 154 30 137 224 123 28 209 57 99 170 191 5 3 11 30 69 224 100 242 233 4 153 240 195 22 204 85 22 51 143 14 205 173 151 173 40 179 127 97 23 41 32 28 44 43 58 113 12 158 99 245 163 252 229 102 19 178 
188 41 229 75 55 178 248 206 96 32 130 223 129 153 8 161 181 52 205 239 165 217 142 8 206 49 4 180 151 23 102 83 65 75 158 120 253 150 71 93 182 201 60 55 98 68 217 23 120 166 6 29 127 148 37 77 197 42 1 93 65 103 176 130 178 79 251 176 229 66 13 156 11 74 211 109 142 172 132 7 82 138 36 209 31 74 31 228 116 32 65 181 136 242 56 58 65 51 234 38 
117 248 194 128 66 150 237 208 66 113 215 149 251 252 102 26 70 133 255 186 166 64 111 46 50 167 104 115 218 83 154 79 75 92 207 141 242 188 93 53 45 53 202 41 49 48 67 119 182 66 49 92 131 160 138 181 72 242 41 34 69 195 114 144 31 65 29 18 254 123 71 43 176 17 84 225 65 152 88 247 218 137 83 93 41 221 19 113 208 60 148 21 255 6 166 30 71 195 48 69 
62 119 113 238 136 197 207 202 93 39 193 56 176 21 149 218 242 168 75 194 228 223 216 227 229 126 2 45 65 50 114 128 170 227 110 50 169 62 252 6 101 190 62 22 211 212 240 197 124 59 136 97 27 96 68 0 222 70 45 31 121 160 159 35 131 14 85 44 76 82 51 177 16 113 199 227 69 183 168 194 243 48 35 14 144 103 14 110 174 60 142 39 220 45 74 95 59 159 140 135 
241 191 57 1 48 0 228 118 184 141 56 171 189 91 185 78 194 199 188 112 3 74 151 223 120 225 63 179 129 203 59 114 138 116 116 186 116 88 48 44 229 104 215 163 195 144 241 134 88 173 246 91 248 142 59 112 111 122 35 240 69 94 99 207 210 215 137 71 47 186 115 21 34 75 184 230 219 169 108 51 86 98 143 78 240 202 190 96 68 226 80 137 64 179 88 19 138 225 90 186 
155 205 207 190 24 135 164 244 48 16 39 134 114 182 213 99 128 147 195 196 117 19 77 182 199 165 201 81 135 35 11 34 240 218 224 9 97 132 253 145 148 36 24 7 219 237 106 91 128 45 32 246 64 109 172 7 19 117 89 154 152 100 188 136 63 157 145 160 33 142 50 182 179 74 189 142 55 39 233 183 84 9 173 148 119 89 156 138 206 245 36 102 89 224 239 152 125 128 57 159 
15 107 85 194 181 18 80 236 57 57 163 141 67 81 33 186 170 189 68 121 178 104 223 12 72 206 164 198 79 221 101 94 72 186 32 253 204 112 233 5 169 141 146 236 222 179 166 136 113 234 1 35 82 225 47 155 175 212 97 254 177 198 92 250 128 124 247 76 236 225 81 150 110 227 130 76 150 41 212 7 19 214 43 102 183 90 1 102 46 98 101 224 40 193 218 168 62 209 244 42 
178 69 192 32 40 67 108 190 108 65 198 127 23 241 229 206 75 230 52 122 72 153 90 112 91 52 24 153 5 12 195 184 81 132 216 121 199 69 56 51 134 254 178 157 239 152 107 58 126 159 180 199 57 14 55 148 66 80 45 72 92 240 0 174 116 216 39 59 29 95 110 163 93 33 64 76 185 171 135 55 75 59 254 132 74 54 24 140 134 69 212 226 53 212 144 170 173 184 229 202 
23 84 110 117 117 174 193 46 90 72 101 165 132 100 41 206 154 65 90 32 134 47 2 187 3 147 101 176 75 75 123 98 159 233 215 20 151 153 66 241 225 167 150 101 11 191 51 165 0 142 197 134 189 200 66 192 91 167 113 166 242 236 8 145 213 224 165 108 121 231 94 90 143 244 192 154 180 243 64 180 129 5 59 62 205 125 255 40 36 112 206 23 92 215 168 49 183 78 157 48 
53 251 138 196 240 74 95 164 62 159 88 191 164 147 254 114 16 253 154 53 109 105 76 201 64 244 250 247 66 151 39 120 147 177 60 131 252 155 39 58 58 127 249 223 19 247 81 35 244 235 88 97 84 164 42 148 153 36 139 219 188 178 83 79 100 144 210 96 43 249 154 102 120 147 69 139 139 150 175 127 129 7 225 214 172 11 106 69 48 246 32 236 168 116 59 12 4 13 108 47 
6 6 149 126 154 218 10 37 112 185 164 242 192 133 200 108 145 50 177 193 40 210 173 209 70 232 221 74 245 74 121 251 80 15 121 234 233 131 15 90 60 180 76 253 57 20 105 202 70 27 139 111 237 56 64 51 32 29 125 21 103 246 16 184 5 138 162 239 13 178 73 74 102 149 71 159 169 176 106 239 203 245 94 184 46 158 235 78 188 104 100 35 95 116 219 100 254 126 83 12 
48 156 86 150 49 157 53 218 77 159 202 25 149 40 209 195 199 189 17 131 37 117 166 132 234 130 233 232 0 60 244 48 217 74 198 10 231 251 229 53 155 175 78 48 215 31 243 158 220 4 33 2 122 200 134 100 74 111 76 74 172 65 122 133 139 64 143 115 59 116 168 214 35 246 6 251 21 249 153 242 254 187 244 120 131 122 220 205 234 40 23 150 105 145 27 245 209 170 104 12 
31 16 227 66 6 233 61 27 227 215 13 225 146 1 89 21 124 53 226 102 93 249 252 199 138 23 188 91 193 36 103 224 52 74 35 58 52 96 85 23 55 99 248 201 100 81 222 224 134 192 70 227 185 66 170 67 89 102 158 27 138 6 251 190 80 30 248 132 127 78 155 182 177 147 128 21 228 94 246 106 31 60 78 216 127 248 28 216 95 186 243 233 192 239 168 17 13 160 149 140 
238 49 67 159 196 195 181 169 33 171 19 64 231 97 25 102 90 53 63 185 239 50 162 176 33 74 193 47 235 86 187 217 135 254 121 76 193 46 245 227 217 8 35 192 106 60 39 196 113 102 125 97 152 31 17 186 106 210 233 85 40 164 46 176 163 167 252 100 213 241 71 174 249 107 111 99 167 150 39 25 252 164 122 148 196 139 78 46 93 55 131 133 220 177 53 127 89 49 227 46 
34 43 221 28 150 76 127 61 226 167 86 222 75 208 114 15 91 193 61 184 248 192 62 212 114 115 83 203 165 55 249 199 98 214 227 248 34 99 53 4 10 140 226 85 92 85 101 184 22 162 112 14 99 174 227 213 34 54 160 199 109 153 142 207 112 114 199 146 213 253 151 223 137 121 52 229 206 153 157 228 60 14 243 159 188 214 116 222 12 20 165 122 173 52 73 29 166 17 176 123 
14 71 90 151 192 142 124 143 40 26 115 100 40 102 3 228 60 119 195 73 139 104 195 56 156 12 86 66 29 6 189 43 77 23 194 13 166 63 156 206 89 16 50 129 118 53 101 179 172 40 252 55 145 191 111 45 203 197 112 233 203 45 20 24 69 215 38 235 22 194 185 111 210 235 240 73 32 85 252 204 126 248 3 15 183 114 60 130 56 172 107 3 218 128 28 31 87 66 10 109 
4 195 220 215 174 204 32 206 33 28 154 159 20 157 174 203 15 235 77 71 151 185 75 113 57 103 144 144 169 154 253 173 93 217 132 11 165 164 217 198 192 115 102 212 16 20 159 32 255 237 103 151 166 178 8 223 25 153 111 194 51 108 112 145 69 244 156 234 153 118 176 89 233 22 46 250 43 205 26 42 186 129 193 96 52 202 63 77 99 174 16 150 26 128 39 95 116 196 73 13 
58 250 103 35 16 149 29 59 98 55 102 29 185 39 125 237 241 189 58 84 107 74 235 134 202 18 229 63 214 47 76 16 41 179 52 57 72 81 117 171 137 219 200 66 2 69 47 244 2 105 72 110 180 51 244 126 70 217 189 28 8 10 45 49 189 97 107 6 178 224 177 59 187 121 125 189 190 172 177 193 22 250 47 202 45 35 72 115 252 6 144 5 16 189 54 205 30 161 211 208 
129 132 12 60 253 137 250 188 54 171 125 76 165 172 22 211 207 94 70 203 100 214 208 116 147 7 66 177 168 21 130 42 154 142 102 151 23 96 83 77 12 208 153 177 124 175 132 75 14 203 23 114 161 231 231 53 238 41 230 151 62 104 193 216 246 39 112 14 136 195 91 148 148 245 69 16 164 202 92 178 149 115 37 54 90 12 107 73 53 82 224 115 186 161 76 177 200 188 191 80 
127 26 228 19 15 42 36 180 244 128 102 137 243 139 191 77 151 43 150 204 125 118 64 55 23 140 232 224 72 167 48 199 194 21 219 209 63 255 133 51 127 236 188 114 119 123 191 15 166 86 219 35 204 27 91 228 167 67 196 239 235 244 183 173 9 146 126 72 145 4 123 16 240 55 130 103 179 65 118 89 151 82 125 100 109 216 72 21 27 12 4 6 0 187 179 10 77 50 82 222 
54 206 238 38 5 112 141 184 178 4 18 73 86 143 173 195 103 245 216 130 1 221 137 2 152 60 12 230 110 94 196 164 44 179 202 50 35 88 234 213 92 252 31 178 139 204 117 242 194 78 117 195 43 254 197 195 58 209 169 169 48 110 77 92 33 24 142 68 112 121 26 204 117 57 126 1 5 243 243 199 65 104 139 108 102 80 48 161 34 217 74 82 71 151 174 104 175 61 173 31 
182 199 235 43 0 105 44 5 93 32 205 158 136 88 11 239 168 59 144 202 20 218 28 92 113 203 196 33 8 113 64 190 56 44 233 56 149 22 62 242 54 11 145 190 99 156 173 11 215 61 214 235 23 242 71 137 189 12 170 197 125 234 131 182 22 109 238 172 131 44 158 185 55 47 119 154 203 37 166 162 98 124 142 122 110 213 3 44 225 173 241 95 151 117 21 174 226 3 90 101 
48 248 30 103 40 149 2 243 186 168 150 29 36 36 151 146 249 154 190 219 71 176 58 222 37 79 140 7 82 230 108 130 223 138 234 7 31 236 250 218 148 144 247 184 180 142 74 174 40 9 137 111 185 195 77 222 18 218 229 100 192 81 231 159 219 209 166 250 189 161 212 81 49 203 9 230 89 83 148 129 92 29 240 21 224 62 243 242 24 216 86 216 41 61 120 4 14 30 255 203 
191 211 28 241 159 37 215 248 121 107 122 213 136 106 235 104 168 222 90 192 183 176 153 224 238 17 229 252 47 228 200 239 183 228 224 86 10 183 79 131 34 201 88 170 51 67 18 220 34 108 156 217 28 53 185 10 70 158 7 118 130 207 101 58 179 69 144 189 252 223 64 30 168 153 200 220 220 218 184 254 70 84 215 98 138 145 109 208 47 116 70 178 67 171 236 246 240 124 180 236 
92 244 10 4 141 210 224 106 172 152 104 242 237 64 85 119 209 194 71 0 54 142 178 121 57 158 111 42 27 35 22 119 24 33 123 165 243 92 15 160 244 120 146 225 184 231 88 137 169 160 137 223 46 60 88 103 218 200 145 245 235 168 108 3 201 232 169 188 68 184 92 56 48 239 26 232 214 114 113 128 18 251 95 64 55 184 168 17 128 57 7 107 225 115 111 170 91 24 103 159 
208 195 216 1 178 242 233 137 100 91 9 119 86 104 183 141 32 95 158 160 153 165 12 122 25 123 37 116 147 140 20 99 79 236 100 2 222 78 139 66 169 148 185 255 252 113 140 29 208 42 189 105 208 201 228 233 68 9 93 215 149 113 59 228 93 159 230 59 237 113 126 150 5 55 149 2 168 33 31 121 76 220 226 28 166 198 5 234 207 98 194 100 212 253 73 49 156 47 109 138 
161 235 32 166 34 182 168 203 215 199 68 35 164 38 63 74 237 68 52 188 167 246 33 123 243 106 172 144 153 25 26 58 4 58 225 39 240 137 242 200 81 54 235 245 92 43 63 73 111 115 6 22 106 39 145 93 145 62 237 42 87 7 101 92 66 70 131 50 207 117 250 32 171 230 21 7 17 84 81 128 200 87 151 50 126 40 143 15 102 125 57 190 132 158 26 198 228 157 249 180 
18 243 212 189 217 234 196 234 62 21 107 6 108 2 56 234 42 200 249 145 69 51 79 201 209 105 144 182 6 137 106 24 124 62 213 86 40 153 64 103 175 171 109 27 173 166 6 216 110 255 105 179 50 184 124 4 33 12 186 39 149 36 63 18 98 20 104 139 173 168 242 92 84 95 120 1 5 126 217 115 125 66 38 176 250 163 180 27 175 110 66 69 146 129 87 244 149 191 127 67 
103 113 159 187 209 23 189 214 149 150 74 19 217 112 195 211 19 119 239 195 229 49 8 119 179 95 107 72 30 235 139 133 92 43 65 45 66 254 4 216 148 78 235 109 190 174 65 210 37 48 149 10 97 157 129 20 252 236 93 26 215 232 159 52 19 224 97 86 222 101 46 115 179 25 224 114 199 33 68 236 81 217 246 179 118 119 199 114 99 36 140 59 13 43 111 32 12 208 118 234 
54 164 93 233 189 62 91 132 95 159 112 177 120 102 100 238 221 43 96 65 80 236 124 93 24 235 125 36 187 244 14 241 152 108 219 86 170 54 218 9 214 75 186 78 177 30 61 143 74 157 208 154 138 76 247 162 55 116 198 242 104 212 228 1 64 191 87 234 245 49 244 203 124 174 26 46 205 87 189 23 244 141 177 126 217 168 32 16 28 230 2 133 187 230 134 251 165 221 230 155 
14 218 102 139 136 128 185 85 215 118 108 204 3 29 74 220 197 107 236 226 81 238 103 12 213 237 8 122 202 238 21 216 200 124 99 80 252 28 166 212 146 18 160 149 48 234 113 245 85 93 215 167 76 62 179 33 43 187 155 245 169 177 206 113 45 49 194 41 78 104 253 224 122 157 118 170 136 231 160 221 69 119 132 145 182 56 178 225 243 77 215 157 254 165 14 43 214 208 85 36 
56 82 5 179 240 123 93 120 98 253 85 167 117 218 56 43 18 234 12 5 56 227 162 54 136 177 98 95 129 183 131 186 9 136 109 249 3 202 113 102 200 199 13 61 161 70 104 179 48 116 184 104 88 91 159 224 12 1 63 141 184 195 71 193 75 180 187 79 127 44 181 71 243 194 132 148 8 236 71 57 96 0 161 184 91 64 153 103 65 216 244 249 155 60 187 231 240 118 54 111 
162 235 182 150 173 58 42 182 38 114 239 135 114 144 63 205 209 216 52 18 177 40 12 76 100 199 51 85 61 105 196 223 84 123 117 2 181 160 184 220 18 167 99 132 55 162 81 8 123 133 27 44 173 39 120 18 238 172 103 43 21 43 10 106 166 128 108 92 32 36 56 50 203 155 182 2 61 7 11 184 140 38 228 57 77 93 75 59 9 178 102 30 222 112 136 132 240 244 224 16 
24 24 66 227 179 248 230 241 255 241 169 139 23 142 197 100 235 16 159 244 195 5 18 161 117 155 37 102 143 6 118 168 30 185 139 210 177 113 195 177 98 108 60 121 250 1 221 229 18 124 217 213 129 236 118 247 135 155 93 22 161 211 190 192 140 74 146 62 187 85 239 30 193 43 151 188 45 117 161 63 241 123 20 115 103 138 106 238 37 199 4 199 154 195 135 39 13 25 101 200 
110 84 230 47 127 126 235 172 243 141 235 228 8 255 87 111 137 193 93 175 136 97 118 35 36 253 74 49 22 175 250 132 3 224 179 130 94 159 47 81 44 26 54 52 26 141 163 163 79 0 82 215 97 200 250 134 197 68 183 219 243 177 95 246 146 19 121 240 178 168 66 222 194 120 18 220 5 181 128 84 181 210 44 22 155 38 156 96 107 84 60 94 5 155 85 151 174 206 136 96 
118 202 62 56 66 80 21 71 5 149 156 186 103 200 209 2 238 109 99 89 193 159 184 199 58 13 94 233 219 230 73 81 176 136 137 242 216 158 58 222 51 214 152 155 158 105 157 140 215 0 230 152 159 158 95 218 171 190 195 134 164 12 215 85 148 96 71 109 255 129 75 50 87 227 205 245 77 107 130 36 107 104 188 11 6 28 229 177 218 168 55 126 180 14 211 73 110 27 182 109 
156 1 160 244 228 109 233 49 216 107 85 68 211 18 79 217 46 52 138 8 220 193 134 144 207 90 217 62 117 143 171 17 144 75 5 117 185 239 166 145 90 252 213 46 14 36 7 60 88 146 68 52 83 202 197 35 36 158 97 153 46 12 171 190 88 176 51 17 159 218 162 250 214 120 40 228 156 47 32 245 193 100 41 21 46 238 56 83 141 153 236 187 165 151 121 253 72 173 14 231 
135 177 225 93 41 9 65 197 57 97 186 250 197 228 15 243 210 71 70 95 224 51 26 134 202 148 131 18 65 146 250 200 67 219 37 108 229 102 49 30 199 236 24 140 208 40 127 162 111 198 2 80 249 28 214 195 176 89 214 241 235 208 185 46 171 222 154 144 68 204 174 11 184 199 151 136 239 23 42 94 221 44 174 214 73 132 153 249 222 111 235 201 63 164 248 235 131 146 123 199 
94 42 211 22 241 106 158 224 129 201 62 94 245 237 52 62 113 206 56 79 61 35 25 125 199 17 104 74 163 227 18 2 13 229 24 254 79 183 222 209 128 29 47 117 10 100 180 123 50 236 203 111 15 228 236 214 245 84 33 152 56 51 154 69 24 179 68 103 106 34 56 234 63 104 95 73 204 19 197 254 255 144 109 14 116 90 229 105 174 6 1 230 57 156 44 81 79 112 184 185 
146 241 163 210 89 2 27 37 22 224 35 21 112 144 36 228 234 9 77 153 15 79 127 72 235 171 153 58 27 81 243 174 66 150 128 155 152 155 192 174 124 227 196 236 116 232 209 94 241 30 247 0 109 119 72 88 34 225 146 62 50 133 236 117 27 108 16 180 7 209 98 131 180 38 112 40 14 65 135 255 95 126 255 205 245 71 37 24 40 184 86 91 61 66 208 89 174 224 13 181 
177 111 57 102 150 169 142 164 234 21 164 73 148 163 22 137 235 60 161 19 244 247 110 49 57 62 138 231 31 151 157 208 7 214 54 157 127 197 65 105 218 229 178 110 137 201 248 116 5 153 135 249 145 246 42 202 52 181 178 83 76 79 36 83 37 90 240 164 31 50 13 250 23 191 104 160 136 96 20 141 250 156 134 139 146 177 85 198 102 7 26 178 86 62 6 123 152 246 31 184 
40 44 178 64 236 26 224 116 123 245 2 117 145 136 0 35 57 85 233 159 93 3 82 179 65 88 47 218 78 78 146 119 123 68 183 103 94 151 219 217 140 221 78 29 102 78 64 159 164 42 63 1 45 145 180 111 233 227 73 55 50 219 174 173 31 101 20 125 253 239 87 137 205 165 167 51 244 231 210 152 17 17 153 63 162 77 174 139 49 247 195 99 210 113 16 241 215 36 110 212 
19 197 93 224 107 4 19 95 236 230 247 253 247 144 60 154 221 234 37 14 225 232 113 179 90 129 164 49 165 19 5 185 216 98 153 67 103 173 162 83 147 153 80 138 41 141 36 7 119 74 21 89 50 135 12 140 8 177 189 174 196 194 103 156 37 0 224 140 173 130 223 64 28 47 203 69 188 239 76 52 57 98 141 108 233 153 248 241 74 182 159 14 120 6 171 157 7 139 41 180 
13 8 245 41 56 192 111 244 175 187 40 233 29 181 85 6 79 77 248 153 3 151 168 124 158 83 25 165 222 67 89 235 75 78 21 131 14 132 120 190 63 160 167 93 86 252 99 165 73 91 62 77 243 230 201 145 57 226 54 23 37 143 3 113 222 24 244 236 156 108 170 219 13 81 56 99 77 156 8 151 247 70 228 234 45 173 123 102 143 177 126 181 65 129 38 31 153 26 11 53 
135 182 16 148 7 73 247 85 229 255 236 220 69 208 199 114 125 66 217 12 244 87 193 53 216 231 84 113 2 95 166 137 21 182 29 29 255 20 114 228 19 94 193 88 46 136 203 171 202 164 183 190 251 121 243 211 96 71 68 98 167 234 235 188 160 8 217 160 28 75 132 47 169 69 136 215 205 83 130 152 247 58 86 242 179 74 197 19 145 9 118 56 243 97 245 147 106 206 51 134 
26 184 182 195 253 62 155 203 145 29 99 136 87 185 122 10 3 63 30 149 72 148 205 59 245 194 206 95 145 2 230 171 186 156 110 183 218 9 130 107 39 229 243 126 159 109 137 162 172 167 55 244 59 5 47 48 199 253 144 88 255 118 3 185 18 114 113 236 123 243 87 162 217 74 33 120 183 170 26 99 81 82 87 140 87 134 188 30 131 76 119 131 194 122 60 212 236 173 192 104 
161 23 10 122 97 43 242 24 213 12 123 38 94 210 178 181 88 111 212 220 187 75 95 126 197 155 82 178 73 19 26 234 42 36 100 140 80 86 164 37 98 32 76 193 242 254 118 75 109 74 39 41 149 134 167 91 33 249 13 106 12 39 84 55 75 184 195 155 14 103 193 113 135 13 50 122 11 168 197 121 243 236 162 136 114 73 227 147 66 240 254 79 23 82 134 99 11 73 254 25 
176 191 138 56 204 188 178 216 101 119 81 88 99 243 224 213 60 196 104 126 180 102 205 204 185 83 47 196 156 45 221 77 237 104 133 185 36 55 145 137 174 226 225 17 213 194 230 17 134 78 144 58 181 93 6 110 177 53 50 77 99 15 154 80 119 31 9 156 86 155 37 4 125 7 21 83 201 251 100 79 74 244 137 255 82 144 109 3 197 159 80 40 174 235 120 38 10 130 194 97 
29 231 101 154 238 123 237 183 118 82 6 192 70 144 191 152 32 44 155 229 203 236 14 122 215 134 160 225 8 98 66 37 73 168 192 56 35 173 239 153 255 246 90 70 134 25 222 166 70 122 139 17 102 153 139 61 32 43 30 40 141 97 78 215 9 14 15 44 187 254 197 187 244 31 1 122 57 223 32 127 89 172 144 191 69 28 252 101 71 27 142 213 124 220 172 133 234 187 177 165 
185 118 96 174 150 97 40 207 65 73 78 154 245 222 90 58 250 86 160 66 113 46 23 237 10 195 114 244 126 35 153 55 154 250 229 48 91 14 255 156 87 77 55 76 43 145 134 38 231 38 104 89 84 127 70 94 66 185 82 192 220 236 247 118 230 221 166 65 235 165 222 66 242 21 142 30 166 20 68 141 59 172 230 143 43 45 238 109 230 64 45 194 44 36 57 18 1 223 84 236 
133 50 46 119 71 188 149 237 209 217 122 12 133 97 155 176 142 137 29 116 202 74 54 246 111 111 9 112 79 93 93 212 143 139 75 214 72 225 195 25 186 61 37 64 158 192 240 44 74 14 160 20 88 215 10 199 70 19 56 149 112 149 105 255 32 181 213 104 150 152 129 80 214 166 144 116 103 129 161 177 143 65 197 231 24 207 175 95 227 231 244 83 124 94 83 156 19 40 5 169 
193 134 249 151 45 138 11 148 11 172 69 154 238 10 129 6 217 48 101 188 23 90 16 147 184 99 48 203 139 53 116 76 187 109 227 232 247 239 124 2 155 193 156 137 203 30 144 165 78 245 97 102 79 113 249 7 212 41 210 96 94 70 172 26 180 144 2 171 127 127 174 26 64 74 164 12 104 52 177 183 41 18 29 121 132 22 128 88 64 83 184 158 153 101 184 77 245 187 249 116 
58 167 142 122 241 50 134 90 102 55 17 144 74 46 9 206 68 137 38 132 220 223 35 118 68 219 195 57 150 188 173 208 99 59 75 85 110 209 175 212 9 192 100 83 238 109 33 50 247 71 183 211 38 218 73 106 181 13 163 76 201 80 28 45 140 103 130 250 57 49 206 66 241 51 149 223 160 182 17 151 253 200 107 36 162 180 142 88 193 50 164 139 130 192 184 14 40 58 8 97 
107 215 163 92 10 56 59 170 238 76 66 235 21 173 15 183 97 158 15 35 208 179 174 82 116 102 97 156 160 105 253 11 64 160 103 74 216 162 245 198 238 55 177 3 228 193 187 69 95 202 104 47 126 22 129 242 124 226 142 28 76 139 39 140 43 142 215 3 48 204 201 31 3 122 34 231 59 221 44 154 168 149 201 38 171 75 24 40 45 166 68 121 49 108 6 92 250 221 95 43 
169 40 74 172 162 108 147 222 74 191 120 242 84 66 24 0 141 48 40 186 214 108 52 7 216 58 99 211 23 194 254 192 234 72 108 140 180 255 106 254 190 227 240 19 37 8 19 178 56 59 108 14 167 160 21 128 218 120 83 241 58 81 177 36 153 29 177 77 28 27 76 219 254 60 238 35 69 1 213 125 60 66 140 227 226 161 99 189 26 182 174 84 7 96 121 160 125 42 238 154 
69 58 117 68 118 99 103 187 100 61 57 160 127 197 131 97 102 231 30 128 157 205 213 165 45 78 69 170 120 51 68 189 109 185 1 228 28 105 159 128 166 216 32 37 157 164 134 4 139 165 132 40 114 89 205 159 167 19 73 31 70 142 221 180 71 222 152 100 71 55 228 237 16 5 18 173 169 153 177 52 62 54 92 176 143 42 79 55 61 152 86 131 38 51 55 110 18 207 210 89 
7 182 71 23 187 89 196 100 242 118 152 48 172 245 224 59 31 47 114 92 200 201 223 238 252 23 92 14 230 46 104 237 229 175 4 160 8 201 5 251 63 157 43 235 146 12 38 177 59 153 13 3 98 237 242 94 4 78 109 234 125 213 216 98 132 220 2 140 165 7 135 228 165 179 207 55 191 246 233 250 143 246 254 241 227 240 79 231 62 188 210 187 145 170 29 21 134 32 162 44 
39 41 16 204 220 224 4 155 214 237 150 101 227 148 86 199 132 165 174 194 98 128 126 243 42 155 9 177 187 171 221 227 212 237 175 177 205 179 76 163 160 226 8 132 118 94 75 250 4 249 189 102 122 59 89 164 214 98 85 146 13 50 117 226 32 36 147 237 216 223 145 120 194 153 252 56 248 71 51 252 65 240 98 187 43 187 95 1 30 181 147 43 231 8 13 7 45 160 245 5 
128 134 125 66 31 122 122 23 193 173 19 2 157 117 189 200 49 29 202 79 210 93 122 185 102 136 193 147 40 182 152 168 60 21 234 91 143 101 115 81 18 134 83 176 252 17 120 45 46 66 124 0 160 246 185 6 126 122 153 167 48 49 79 108 70 58 200 214 159 59 39 177 193 122 97 189 139 218 234 185 28 102 185 188 93 115 194 219 237 91 130 30 140 210 138 211 12 82 169 171 
141 208 92 79 74 190 12 214 152 247 143 180 93 73 113 186 188 51 150 169 143 24 199 27 234 82 238 246 164 151 161 50 103 254 129 178 188 141 136 84 132 23 8 226 96 121 156 28 173 50 198 60 75 141 87 53 223 70 44 132 221 205 182 69 203 55 247 135 196 127 219 73 150 228 43 247 93 199 19 10 250 217 70 69 103 158 122 70 228 166 202 193 116 128 6 63 183 253 199 124 
124 162 197 19 134 240 10 228 183 29 238 177 247 53 246 94 211 113 164 183 23 111 120 139 239 127 203 167 124 146 35 249 52 232 12 187 216 22 159 143 51 141 65 42 194 55 136 149 168 45 76 192 156 197 75 139 68 22 50 192 168 85 185 221 61 197 152 21 219 55 165 15 196 230 57 135 29 194 28 198 239 105 134 139 46 209 22 114 232 73 50 144 158 236 109 220 177 5 241 141 
60 150 156 1 124 213 136 154 151 164 96 134 13 230 17 59 183 40 173 159 113 224 48 15 204 157 235 125 163 221 10 223 115 166 224 240 124 104 138 19 13 234 154 26 208 171 86 135 211 3 39 68 227 87 84 175 244 63 45 151 28 55 119 144 222 87 128 90 192 10 109 205 244 7 231 196 179 61 75 134 65 114 203 36 201 31 212 190 94 1 85 123 56 204 11 22 36 139 112 228 
149 222 177 137 229 152 77 152 214 152 31 23 11 234 59 212 9 15 146 103 16 232 226 73 180 237 95 216 120 208 188 13 174 109 150 147 6 227 44 220 124 75 243 135 53 46 91 62 62 238 165 78 214 136 151 138 117 247 99 238 199 31 251 117 141 146 8 147 117 52 111 241 127 98 120 180 144 212 242 206 194 152 29 152 32 180 34 149 171 133 131 114 165 127 231 50 17 240 197 134 
36 52 120 164 150 240 88 38 196 75 245 134 227 18 30 3 198 65 152 114 198 28 228 107 155 204 157 172 188 98 50 224 150 170 132 44 155 221 83 95 40 72 230 11 90 4 14 32 69 166 146 12 194 119 119 93 67 21 9 255 119 60 223 14 230 100 58 129 65 141 225 105 213 199 116 47 203 130 80 17 40 226 29 235 89 148 72 156 169 82 155 33 142 123 47 116 223 105 246 32 
247 215 137 204 158 253 252 105 127 76 122 167 46 151 146 136 44 219 36 213 45 192 246 187 59 37 47 26 143 37 58 134 252 195 82 154 192 78 4 63 154 126 230 201 22 121 81 66 84 117 23 129 53 14 60 112 51 107 138 194 145 196 72 141 135 155 40 71 233 44 134 132 170 109 77 192 230 158 2 58 19 26 187 73 40 247 185 91 98 68 30 243 8 102 129 144 1 169 215 235 
213 94 111 127 203 188 64 177 90 66 235 109 92 166 182 132 157 112 224 255 180 254 243 188 100 116 76 102 29 36 81 242 130 192 113 77 124 177 254 214 244 233 67 80 143 250 213 44 106 181 43 30 179 30 218 23 146 39 125 175 75 206 161 205 142 19 26 10 196 24 224 184 1 36 9 144 30 222 188 136 147 231 166 70 6 128 93 152 167 219 72 242 169 233 191 56 252 217 66 193 
