P2 
# Criado por Diogo 
4 2 
255 
0 64 128 192 
210 240 250 255